<?xml version="1.0" encoding="UTF-8" standalone="no"?>
<!-- Generator: Adobe Illustrator 12.0.0, SVG Export Plug-In . SVG Version: 6.00 Build 51448)  -->

<svg
   xmlns:dc="http://purl.org/dc/elements/1.1/"
   xmlns:cc="http://creativecommons.org/ns#"
   xmlns:rdf="http://www.w3.org/1999/02/22-rdf-syntax-ns#"
   xmlns:svg="http://www.w3.org/2000/svg"
   xmlns="http://www.w3.org/2000/svg"
   xmlns:sodipodi="http://sodipodi.sourceforge.net/DTD/sodipodi-0.dtd"
   xmlns:inkscape="http://www.inkscape.org/namespaces/inkscape"
   version="1.1"
   id="Ebene_1"
   width="514.528"
   height="137.441"
   viewBox="0 0 514.528 137.441"
   overflow="visible"
   enable-background="new 0 0 514.528 137.441"
   xml:space="preserve"
   inkscape:version="0.91 r13725"
   sodipodi:docname="Braille-Keyboard.svg"><metadata
     id="metadata129"><rdf:RDF><cc:Work
         rdf:about=""><dc:format>image/svg+xml</dc:format><dc:type
           rdf:resource="http://purl.org/dc/dcmitype/StillImage" /><dc:title></dc:title></cc:Work></rdf:RDF></metadata><defs
     id="defs127" /><sodipodi:namedview
     pagecolor="#ffffff"
     bordercolor="#666666"
     borderopacity="1"
     objecttolerance="10"
     gridtolerance="10"
     guidetolerance="10"
     inkscape:pageopacity="0"
     inkscape:pageshadow="2"
     inkscape:window-width="1920"
     inkscape:window-height="1017"
     id="namedview125"
     showgrid="false"
     inkscape:zoom="0.68023507"
     inkscape:cx="257.26401"
     inkscape:cy="68.720497"
     inkscape:window-x="-8"
     inkscape:window-y="114"
     inkscape:window-maximized="1"
     inkscape:current-layer="Ebene_1" /><g
     id="g3"><path
       fill-rule="evenodd"
       clip-rule="evenodd"
       fill="#AAAAAA"
       d="M157.069,77.237c-1.7,0-3.5,1.8-3.5,3.5v30.4   c0,1.8,1.8,3.5,3.5,3.5h14.1c1.7,0,3.5-1.7,3.5-3.5v-30.4c0-1.7-1.8-3.5-3.5-3.5H157.069z"
       id="path5" /><path
       fill="none"
       stroke="#474747"
       stroke-width="2.009"
       stroke-linejoin="round"
       stroke-miterlimit="10"
       d="M157.069,77.237   c-1.7,0-3.5,1.8-3.5,3.5v30.4c0,1.8,1.8,3.5,3.5,3.5h14.1c1.7,0,3.5-1.7,3.5-3.5v-30.4c0-1.7-1.8-3.5-3.5-3.5H157.069z"
       id="path7" /><path
       fill-rule="evenodd"
       clip-rule="evenodd"
       fill="#AAAAAA"
       d="M126.369,77.237c-1.7,0-3.5,1.8-3.5,3.5v30.4   c0,1.8,1.8,3.5,3.5,3.5h14.1c1.7,0,3.5-1.7,3.5-3.5v-30.4c0-1.7-1.8-3.5-3.5-3.5H126.369z"
       id="path9" /><path
       fill="none"
       stroke="#474747"
       stroke-width="2.009"
       stroke-linejoin="round"
       stroke-miterlimit="10"
       d="M126.369,77.237   c-1.7,0-3.5,1.8-3.5,3.5v30.4c0,1.8,1.8,3.5,3.5,3.5h14.1c1.7,0,3.5-1.7,3.5-3.5v-30.4c0-1.7-1.8-3.5-3.5-3.5H126.369z"
       id="path11" /><path
       fill-rule="evenodd"
       clip-rule="evenodd"
       fill="#AAAAAA"
       d="M372.068,77.237c-1.8,0-3.5,1.8-3.5,3.5v30.4   c0,1.8,1.7,3.5,3.5,3.5h14.101c1.7,0,3.5-1.7,3.5-3.5v-30.4c0-1.7-1.8-3.5-3.5-3.5H372.068z"
       id="path13" /><path
       fill="none"
       stroke="#474747"
       stroke-width="2.009"
       stroke-linejoin="round"
       stroke-miterlimit="10"
       d="M372.068,77.237   c-1.8,0-3.5,1.8-3.5,3.5v30.4c0,1.8,1.7,3.5,3.5,3.5h14.101c1.7,0,3.5-1.7,3.5-3.5v-30.4c0-1.7-1.8-3.5-3.5-3.5H372.068z"
       id="path15" /><path
       fill-rule="evenodd"
       clip-rule="evenodd"
       fill="#AAAAAA"
       d="M402.769,77.237c-1.7,0-3.5,1.8-3.5,3.5v30.4   c0,1.8,1.8,3.5,3.5,3.5h14.101c1.699,0,3.5-1.7,3.5-3.5v-30.4c0-1.7-1.801-3.5-3.5-3.5H402.769z"
       id="path17" /><path
       fill="none"
       stroke="#474747"
       stroke-width="2.009"
       stroke-linejoin="round"
       stroke-miterlimit="10"
       d="M402.769,77.237   c-1.7,0-3.5,1.8-3.5,3.5v30.4c0,1.8,1.8,3.5,3.5,3.5h14.101c1.699,0,3.5-1.7,3.5-3.5v-30.4c0-1.7-1.801-3.5-3.5-3.5H402.769z"
       id="path19" /><path
       fill-rule="evenodd"
       clip-rule="evenodd"
       fill="#AAAAAA"
       d="M433.469,82.937c-1.7,0-3.5,1.7-3.5,3.5v30.399   c0,1.801,1.8,3.5,3.5,3.5h14.1c1.7,0,3.5-1.699,3.5-3.5V86.437c0-1.8-1.8-3.5-3.5-3.5H433.469z"
       id="path21" /><path
       fill="none"
       stroke="#474747"
       stroke-width="2.009"
       stroke-linejoin="round"
       stroke-miterlimit="10"
       d="M433.469,82.937   c-1.7,0-3.5,1.7-3.5,3.5v30.399c0,1.801,1.8,3.5,3.5,3.5h14.1c1.7,0,3.5-1.699,3.5-3.5V86.437c0-1.8-1.8-3.5-3.5-3.5H433.469z"
       id="path23" /><path
       fill-rule="evenodd"
       clip-rule="evenodd"
       fill="#AAAAAA"
       d="M95.669,82.937c-1.8,0-3.5,1.7-3.5,3.5v30.399   c0,1.801,1.7,3.5,3.5,3.5h14.1c1.7,0,3.5-1.699,3.5-3.5V86.437c0-1.8-1.8-3.5-3.5-3.5H95.669z"
       id="path25" /><path
       fill="none"
       stroke="#474747"
       stroke-width="2.009"
       stroke-linejoin="round"
       stroke-miterlimit="10"
       d="M95.669,82.937   c-1.8,0-3.5,1.7-3.5,3.5v30.399c0,1.801,1.7,3.5,3.5,3.5h14.1c1.7,0,3.5-1.699,3.5-3.5V86.437c0-1.8-1.8-3.5-3.5-3.5H95.669z"
       id="path27" /><path
       fill-rule="evenodd"
       clip-rule="evenodd"
       fill="#AAAAAA"
       d="M65.069,94.237c-1.8,0-3.5,1.8-3.5,3.5v30.4   c0,1.8,1.7,3.6,3.5,3.6h14c1.8,0,3.5-1.8,3.5-3.6v-30.4c0-1.7-1.7-3.5-3.5-3.5H65.069z"
       id="path29" /><path
       fill="none"
       stroke="#474747"
       stroke-width="2.009"
       stroke-linejoin="round"
       stroke-miterlimit="10"
       d="M65.069,94.237   c-1.8,0-3.5,1.8-3.5,3.5v30.4c0,1.8,1.7,3.6,3.5,3.6h14c1.8,0,3.5-1.8,3.5-3.6v-30.4c0-1.7-1.7-3.5-3.5-3.5H65.069z"
       id="path31" /><path
       fill-rule="evenodd"
       clip-rule="evenodd"
       fill="#AAAAAA"
       d="M464.269,94.237c-1.8,0-3.5,1.8-3.5,3.5v30.4   c0,1.8,1.7,3.6,3.5,3.6h14c1.8,0,3.5-1.8,3.5-3.6v-30.4c0-1.7-1.7-3.5-3.5-3.5H464.269z"
       id="path33" /><path
       fill="none"
       stroke="#474747"
       stroke-width="2.009"
       stroke-linejoin="round"
       stroke-miterlimit="10"
       d="M464.269,94.237   c-1.8,0-3.5,1.8-3.5,3.5v30.4c0,1.8,1.7,3.6,3.5,3.6h14c1.8,0,3.5-1.8,3.5-3.6v-30.4c0-1.7-1.7-3.5-3.5-3.5H464.269z"
       id="path35" /><path
       fill-rule="evenodd"
       clip-rule="evenodd"
       fill="#AAAAAA"
       d="M218.669,120.137c0-1.601-1.6-3.2-3.2-3.2h-34   c-1.6,0-3.3,1.6-3.3,3.2v13c0,1.6,1.7,3.3,3.3,3.3h34c1.6,0,3.2-1.7,3.2-3.3V120.137z"
       id="path37" /><path
       fill="none"
       stroke="#474747"
       stroke-width="2.009"
       stroke-linejoin="round"
       stroke-miterlimit="10"
       d="M218.669,120.137   c0-1.601-1.6-3.2-3.2-3.2h-34c-1.6,0-3.3,1.6-3.3,3.2v13c0,1.6,1.7,3.3,3.3,3.3h34c1.6,0,3.2-1.7,3.2-3.3V120.137z"
       id="path39" /><path
       fill-rule="evenodd"
       clip-rule="evenodd"
       fill="#AAAAAA"
       d="M262.068,120.137c0-1.601-1.7-3.2-3.3-3.2h-34   c-1.6,0-3.3,1.6-3.3,3.2v13c0,1.6,1.7,3.3,3.3,3.3h34c1.6,0,3.3-1.7,3.3-3.3V120.137z"
       id="path41" /><path
       fill="none"
       stroke="#474747"
       stroke-width="2.009"
       stroke-linejoin="round"
       stroke-miterlimit="10"
       d="M262.068,120.137   c0-1.601-1.7-3.2-3.3-3.2h-34c-1.6,0-3.3,1.6-3.3,3.2v13c0,1.6,1.7,3.3,3.3,3.3h34c1.6,0,3.3-1.7,3.3-3.3V120.137z"
       id="path43" /><path
       fill-rule="evenodd"
       clip-rule="evenodd"
       fill="#AAAAAA"
       d="M315.869,120.137c0-1.601-1.601-3.2-3.2-3.2h-34   c-1.601,0-3.3,1.6-3.3,3.2v13c0,1.6,1.699,3.3,3.3,3.3h34c1.6,0,3.2-1.7,3.2-3.3V120.137z"
       id="path45" /><path
       fill="none"
       stroke="#474747"
       stroke-width="2.009"
       stroke-linejoin="round"
       stroke-miterlimit="10"
       d="M315.869,120.137   c0-1.601-1.601-3.2-3.2-3.2h-34c-1.601,0-3.3,1.6-3.3,3.2v13c0,1.6,1.699,3.3,3.3,3.3h34c1.6,0,3.2-1.7,3.2-3.3V120.137z"
       id="path47" /><path
       fill-rule="evenodd"
       clip-rule="evenodd"
       fill="#AAAAAA"
       d="M359.969,120.137c0-1.601-1.6-3.2-3.2-3.2h-34.1   c-1.601,0-3.2,1.6-3.2,3.2v13c0,1.6,1.6,3.3,3.2,3.3h34.1c1.601,0,3.2-1.7,3.2-3.3V120.137z"
       id="path49" /><path
       fill="none"
       stroke="#474747"
       stroke-width="2.009"
       stroke-linejoin="round"
       stroke-miterlimit="10"
       d="M359.969,120.137   c0-1.601-1.6-3.2-3.2-3.2h-34.1c-1.601,0-3.2,1.6-3.2,3.2v13c0,1.6,1.6,3.3,3.2,3.3h34.1c1.601,0,3.2-1.7,3.2-3.3V120.137z"
       id="path51" /><polyline
       fill="none"
       stroke="#000000"
       stroke-width="0.1"
       stroke-miterlimit="10"
       points="19.369,52.937 33.469,52.937    72.069,79.037 72.069,84.137  "
       id="polyline53" /><polygon
       fill-rule="evenodd"
       clip-rule="evenodd"
       points="72.069,94.336 76.269,81.537 67.769,81.537  "
       id="polygon55" /><polyline
       fill="none"
       stroke="#000000"
       stroke-width="0.1"
       stroke-miterlimit="10"
       points="44.769,33.937 58.969,33.937    102.669,67.737 102.669,72.737  "
       id="polyline57" /><polygon
       fill-rule="evenodd"
       clip-rule="evenodd"
       points="102.669,82.937 106.969,70.237 98.469,70.237  "
       id="polygon59" /><polyline
       fill="none"
       stroke="#000000"
       stroke-width="0.1"
       stroke-miterlimit="10"
       points="67.469,18.937 81.669,18.937    133.469,62.037 133.469,67.037  "
       id="polyline61" /><polygon
       fill-rule="evenodd"
       clip-rule="evenodd"
       points="133.469,77.337 137.669,64.537 129.169,64.537  "
       id="polygon63" /><polyline
       fill="none"
       stroke="#000000"
       stroke-width="0.1"
       stroke-miterlimit="10"
       points="90.169,3.937 104.369,3.937    164.169,62.037 164.169,67.037  "
       id="polyline65" /><polygon
       fill-rule="evenodd"
       clip-rule="evenodd"
       points="164.169,77.337 168.369,64.537 159.869,64.537  "
       id="polygon67" /><polyline
       fill="none"
       stroke="#000000"
       stroke-width="0.1"
       stroke-miterlimit="10"
       points="182.769,9.537 168.569,9.537    198.469,101.737 198.469,106.737  "
       id="polyline69" /><polygon
       fill-rule="evenodd"
       clip-rule="evenodd"
       points="198.469,116.937 202.769,104.237 194.269,104.237  "
       id="polygon71" /><polyline
       fill="none"
       stroke="#000000"
       stroke-width="0.1"
       stroke-miterlimit="10"
       points="210.169,18.937 224.369,18.937    241.769,101.737 241.769,106.737  "
       id="polyline73" /><polygon
       fill-rule="evenodd"
       clip-rule="evenodd"
       points="241.769,116.937 246.069,104.237 237.569,104.237  "
       id="polygon75" /><polyline
       fill="none"
       stroke="#000000"
       stroke-width="0.1"
       stroke-miterlimit="10"
       points="324.469,19.037 310.269,19.037    295.669,101.737 295.669,106.737  "
       id="polyline77" /><polygon
       fill-rule="evenodd"
       clip-rule="evenodd"
       points="295.669,116.937 299.969,104.237 291.469,104.237  "
       id="polygon79" /><polyline
       fill="none"
       stroke="#000000"
       stroke-width="0.1"
       stroke-miterlimit="10"
       points="351.869,9.537 366.068,9.537    339.769,101.737 339.769,106.737  "
       id="polyline81" /><polygon
       fill-rule="evenodd"
       clip-rule="evenodd"
       points="339.769,116.937 343.969,104.237 335.469,104.237  "
       id="polygon83" /><polyline
       fill="none"
       stroke="#000000"
       stroke-width="0.1"
       stroke-miterlimit="10"
       points="421.769,7.637 407.669,7.637    379.068,62.037 379.068,67.037  "
       id="polyline85" /><polygon
       fill-rule="evenodd"
       clip-rule="evenodd"
       points="379.068,77.337 383.369,64.537 374.869,64.537  "
       id="polygon87" /><polyline
       fill="none"
       stroke="#000000"
       stroke-width="0.1"
       stroke-miterlimit="10"
       points="444.469,20.937 430.369,20.937    409.869,62.037 409.869,67.037  "
       id="polyline89" /><polygon
       fill-rule="evenodd"
       clip-rule="evenodd"
       points="409.869,77.337 414.068,64.537 405.568,64.537  "
       id="polygon91" /><polyline
       fill="none"
       stroke="#000000"
       stroke-width="0.1"
       stroke-miterlimit="10"
       points="470.869,36.237 456.769,36.237    440.568,67.737 440.568,72.737  "
       id="polyline93" /><polygon
       fill-rule="evenodd"
       clip-rule="evenodd"
       points="440.568,82.937 444.769,70.237 436.269,70.237  "
       id="polygon95" /><polyline
       fill="none"
       stroke="#000000"
       stroke-width="0.1"
       stroke-miterlimit="10"
       points="495.469,52.937 481.369,52.937    471.269,79.037 471.269,84.137  "
       id="polyline97" /><polygon
       fill-rule="evenodd"
       clip-rule="evenodd"
       points="471.269,94.336 475.469,81.537 466.969,81.537  "
       id="polygon99" /><path
       d="M1.359,53.828v2.009H0.305c-0.109,0-0.187-0.021-0.234-0.065C0.023,55.729,0,55.675,0,55.61   c0-0.068,0.023-0.123,0.071-0.165c0.047-0.042,0.125-0.062,0.234-0.062h0.602v-5.836H0.305c-0.109,0-0.187-0.021-0.234-0.064   C0.023,49.44,0,49.385,0,49.317c0-0.063,0.023-0.117,0.071-0.159c0.047-0.042,0.125-0.063,0.234-0.063h1.055v4.158l1.921-1.619   H3.148c-0.109,0-0.187-0.021-0.234-0.063c-0.047-0.042-0.071-0.096-0.071-0.159c0-0.068,0.023-0.123,0.071-0.166   c0.047-0.043,0.125-0.064,0.234-0.064h1.313c0.11,0,0.188,0.021,0.235,0.064c0.046,0.043,0.069,0.098,0.069,0.166   c0,0.063-0.023,0.117-0.069,0.159c-0.047,0.042-0.125,0.063-0.235,0.063H3.963l-1.756,1.48l2.211,2.27h0.504   c0.11,0,0.188,0.021,0.235,0.062c0.046,0.042,0.069,0.096,0.069,0.165c0,0.064-0.023,0.119-0.069,0.162   c-0.047,0.043-0.125,0.065-0.235,0.065h-1.5c-0.109,0-0.187-0.021-0.234-0.065c-0.047-0.043-0.071-0.097-0.071-0.162   c0-0.068,0.023-0.123,0.071-0.165c0.047-0.042,0.125-0.062,0.234-0.062h0.381l-1.929-1.99L1.359,53.828z M10.389,49.752v-0.204   H7.155v0.391c0,0.109-0.021,0.187-0.062,0.234c-0.042,0.047-0.096,0.071-0.165,0.071c-0.065,0-0.119-0.023-0.162-0.071   c-0.043-0.047-0.064-0.125-0.064-0.234v-0.844h4.141l0.002,0.717L9.03,55.617C9.001,55.709,8.967,55.77,8.928,55.8   s-0.084,0.045-0.135,0.045c-0.064,0-0.119-0.021-0.162-0.064s-0.064-0.093-0.064-0.15c0-0.036,0.011-0.086,0.032-0.15   L10.389,49.752z"
       id="path101" /><path
       d="M26.859,34.828v2.009h-1.055c-0.109,0-0.187-0.021-0.234-0.065c-0.047-0.043-0.071-0.097-0.071-0.162   c0-0.068,0.023-0.123,0.071-0.165c0.047-0.042,0.125-0.062,0.234-0.062h0.602v-5.836h-0.602c-0.109,0-0.187-0.021-0.234-0.064   c-0.047-0.043-0.071-0.098-0.071-0.166c0-0.063,0.023-0.117,0.071-0.159c0.047-0.042,0.125-0.063,0.234-0.063h1.055v4.158   l1.921-1.619h-0.132c-0.109,0-0.187-0.021-0.234-0.063c-0.047-0.042-0.071-0.096-0.071-0.159c0-0.068,0.023-0.123,0.071-0.166   c0.047-0.043,0.125-0.064,0.234-0.064h1.313c0.11,0,0.188,0.021,0.235,0.064c0.046,0.043,0.069,0.098,0.069,0.166   c0,0.063-0.023,0.117-0.069,0.159c-0.047,0.042-0.125,0.063-0.235,0.063h-0.498l-1.756,1.48l2.211,2.27h0.504   c0.11,0,0.188,0.021,0.235,0.062c0.046,0.042,0.069,0.096,0.069,0.165c0,0.064-0.023,0.119-0.069,0.162   c-0.047,0.043-0.125,0.065-0.235,0.065h-1.5c-0.109,0-0.187-0.021-0.234-0.065c-0.047-0.043-0.071-0.097-0.071-0.162   c0-0.068,0.023-0.123,0.071-0.165c0.047-0.042,0.125-0.062,0.234-0.062h0.381l-1.929-1.99L26.859,34.828z M35.299,33.172   c0.416,0.185,0.732,0.439,0.951,0.762c0.218,0.324,0.327,0.661,0.327,1.011c0,0.54-0.219,1.016-0.657,1.429   c-0.438,0.413-0.986,0.619-1.645,0.619c-0.386,0-0.787-0.083-1.202-0.247c-0.415-0.165-0.705-0.333-0.869-0.504   c-0.054-0.057-0.081-0.118-0.081-0.182c0-0.058,0.021-0.107,0.062-0.15c0.041-0.043,0.09-0.064,0.146-0.064   c0.057,0,0.121,0.027,0.193,0.08c0.554,0.41,1.14,0.615,1.759,0.615c0.522,0,0.959-0.163,1.312-0.49   c0.353-0.327,0.529-0.689,0.529-1.089c0-0.268-0.087-0.53-0.26-0.787s-0.422-0.459-0.748-0.607s-0.654-0.222-0.988-0.222   c-0.108,0-0.185-0.021-0.231-0.063c-0.046-0.042-0.07-0.097-0.07-0.167c0-0.065,0.022-0.12,0.067-0.164   c0.044-0.043,0.112-0.065,0.202-0.065l0.387,0.005c0.405,0,0.739-0.123,1.003-0.37c0.264-0.246,0.396-0.532,0.396-0.856   c0-0.335-0.138-0.631-0.414-0.889c-0.276-0.257-0.636-0.385-1.08-0.385c-0.312,0-0.598,0.054-0.86,0.161   c-0.261,0.107-0.471,0.254-0.628,0.441c-0.057,0.072-0.101,0.115-0.131,0.131s-0.065,0.024-0.104,0.024   c-0.061,0-0.113-0.021-0.155-0.062c-0.043-0.041-0.064-0.09-0.064-0.148c0-0.144,0.156-0.325,0.467-0.543   c0.437-0.305,0.929-0.458,1.476-0.458c0.569,0,1.036,0.171,1.401,0.513c0.365,0.342,0.547,0.749,0.547,1.221   c0,0.301-0.087,0.585-0.263,0.854C35.897,32.794,35.639,33.01,35.299,33.172z"
       id="path103" /><path
       d="M49.56,19.828v2.009h-1.055c-0.109,0-0.187-0.021-0.234-0.065c-0.047-0.043-0.07-0.097-0.07-0.162   c0-0.068,0.023-0.123,0.07-0.165c0.047-0.042,0.125-0.062,0.234-0.062h0.602v-5.836h-0.602c-0.109,0-0.187-0.021-0.234-0.064   c-0.047-0.043-0.07-0.098-0.07-0.166c0-0.064,0.023-0.117,0.07-0.159c0.047-0.042,0.125-0.063,0.234-0.063h1.055v4.158l1.921-1.619   h-0.132c-0.109,0-0.187-0.021-0.234-0.063c-0.047-0.042-0.07-0.096-0.07-0.159c0-0.068,0.023-0.123,0.07-0.166   c0.047-0.043,0.125-0.064,0.234-0.064h1.313c0.11,0,0.188,0.021,0.235,0.064s0.07,0.098,0.07,0.166c0,0.063-0.023,0.117-0.07,0.159   s-0.125,0.063-0.235,0.063h-0.498l-1.756,1.48l2.21,2.27h0.505c0.11,0,0.188,0.021,0.235,0.062s0.07,0.096,0.07,0.165   c0,0.064-0.023,0.119-0.07,0.162c-0.046,0.043-0.125,0.065-0.235,0.065h-1.5c-0.109,0-0.187-0.021-0.234-0.065   c-0.047-0.043-0.07-0.097-0.07-0.162c0-0.068,0.023-0.123,0.07-0.165c0.047-0.042,0.125-0.062,0.234-0.062h0.381l-1.929-1.99   L49.56,19.828z M55.128,21.384h3.469v-0.172c0-0.109,0.021-0.187,0.064-0.234c0.043-0.047,0.099-0.071,0.167-0.071   c0.063,0,0.116,0.023,0.159,0.071c0.042,0.047,0.064,0.125,0.064,0.234v0.625h-4.359v-0.669c0.916-0.826,1.808-1.664,2.674-2.514   c0.405-0.397,0.682-0.688,0.833-0.875s0.253-0.35,0.309-0.491c0.056-0.141,0.083-0.283,0.083-0.426   c0-0.386-0.156-0.728-0.466-1.025c-0.311-0.297-0.686-0.445-1.125-0.445c-0.393,0-0.742,0.113-1.045,0.339s-0.5,0.505-0.589,0.839   c-0.022,0.086-0.049,0.142-0.082,0.167c-0.044,0.036-0.095,0.054-0.153,0.054c-0.062,0-0.114-0.021-0.156-0.062   c-0.042-0.041-0.063-0.09-0.063-0.147c0-0.172,0.094-0.404,0.282-0.698c0.188-0.293,0.447-0.524,0.778-0.692   c0.331-0.168,0.67-0.252,1.017-0.252c0.562,0,1.044,0.195,1.449,0.585s0.607,0.832,0.607,1.326c0,0.208-0.034,0.397-0.102,0.569   c-0.068,0.172-0.184,0.361-0.347,0.567c-0.163,0.206-0.455,0.516-0.877,0.931c-1.06,1.045-1.922,1.856-2.588,2.433V21.384z"
       id="path105" /><path
       d="M72.159,4.828v2.009h-1.055c-0.109,0-0.187-0.021-0.234-0.065C70.824,6.729,70.8,6.675,70.8,6.61   c0-0.068,0.024-0.124,0.071-0.165c0.047-0.042,0.125-0.062,0.234-0.062h0.602V0.548h-0.602c-0.109,0-0.187-0.021-0.234-0.064   C70.824,0.44,70.8,0.385,70.8,0.317c0-0.064,0.024-0.117,0.071-0.159c0.047-0.042,0.125-0.063,0.234-0.063h1.055v4.158l1.921-1.619   h-0.132c-0.109,0-0.187-0.021-0.234-0.064c-0.047-0.042-0.071-0.095-0.071-0.159c0-0.068,0.024-0.124,0.071-0.167   c0.047-0.042,0.125-0.064,0.234-0.064h1.313c0.11,0,0.189,0.021,0.235,0.064c0.046,0.043,0.069,0.099,0.069,0.167   c0,0.063-0.023,0.117-0.069,0.159c-0.046,0.043-0.125,0.064-0.235,0.064h-0.498l-1.756,1.48l2.211,2.27h0.504   c0.11,0,0.189,0.021,0.235,0.062c0.046,0.041,0.069,0.096,0.069,0.165c0,0.064-0.023,0.119-0.069,0.162   c-0.046,0.043-0.125,0.065-0.235,0.065h-1.5c-0.109,0-0.187-0.021-0.234-0.065c-0.047-0.043-0.071-0.097-0.071-0.162   c0-0.068,0.024-0.124,0.071-0.165c0.047-0.042,0.125-0.062,0.234-0.062h0.381l-1.928-1.99L72.159,4.828z M79.892,0v6.384h1.547   c0.109,0,0.187,0.021,0.234,0.062c0.047,0.041,0.071,0.096,0.071,0.165c0,0.064-0.023,0.119-0.071,0.162   c-0.047,0.043-0.125,0.065-0.234,0.065h-3.547c-0.109,0-0.187-0.021-0.234-0.065c-0.047-0.043-0.071-0.097-0.071-0.162   c0-0.068,0.024-0.124,0.071-0.165c0.047-0.042,0.125-0.062,0.234-0.062h1.547V0.625l-1.47,0.46   c-0.071,0.022-0.124,0.033-0.156,0.033c-0.054,0-0.103-0.022-0.147-0.067c-0.045-0.044-0.067-0.097-0.067-0.158   c0-0.054,0.018-0.104,0.054-0.15c0.029-0.029,0.088-0.059,0.177-0.09L79.892,0z"
       id="path107" /><path
       d="M193.392,5.794v6.289h1.766c0.11,0,0.189,0.021,0.235,0.062c0.046,0.042,0.069,0.096,0.069,0.165   c0,0.065-0.023,0.119-0.069,0.162c-0.046,0.043-0.125,0.064-0.235,0.064h-3.984c-0.109,0-0.187-0.021-0.234-0.064   c-0.047-0.043-0.071-0.097-0.071-0.162c0-0.068,0.023-0.123,0.071-0.165c0.047-0.041,0.125-0.062,0.234-0.062h1.766V6.248h-1.305   c-0.107,0-0.185-0.021-0.232-0.064c-0.048-0.042-0.072-0.098-0.072-0.165c0-0.064,0.023-0.117,0.069-0.16   c0.046-0.042,0.125-0.064,0.235-0.064H193.392z"
       id="path109" /><path
       d="M431.26,8.528v2.009h-1.055c-0.109,0-0.188-0.021-0.234-0.064c-0.047-0.043-0.07-0.097-0.07-0.162   c0-0.068,0.023-0.123,0.07-0.165c0.047-0.041,0.125-0.062,0.234-0.062h0.602V4.248h-0.602c-0.109,0-0.188-0.021-0.234-0.064   s-0.07-0.099-0.07-0.167c0-0.063,0.023-0.116,0.07-0.159s0.125-0.064,0.234-0.064h1.055v4.158l1.921-1.619h-0.132   c-0.109,0-0.188-0.021-0.234-0.063s-0.07-0.095-0.07-0.159c0-0.068,0.023-0.123,0.07-0.166s0.125-0.064,0.234-0.064h1.313   c0.11,0,0.188,0.021,0.234,0.064c0.047,0.043,0.07,0.098,0.07,0.166c0,0.064-0.023,0.117-0.07,0.159   c-0.046,0.042-0.124,0.063-0.234,0.063h-0.498l-1.757,1.48l2.211,2.27h0.505c0.11,0,0.188,0.021,0.234,0.062   c0.047,0.042,0.07,0.096,0.07,0.165c0,0.065-0.023,0.119-0.07,0.162c-0.046,0.043-0.124,0.064-0.234,0.064h-1.5   c-0.109,0-0.188-0.021-0.234-0.064c-0.047-0.043-0.07-0.097-0.07-0.162c0-0.068,0.023-0.123,0.07-0.165   c0.047-0.041,0.125-0.062,0.234-0.062h0.381l-1.929-1.989L431.26,8.528z M439.609,8.646h-2.992l0.001-0.523l2.507-4.329h0.938   v4.398h0.376c0.111,0,0.189,0.021,0.236,0.062c0.047,0.042,0.07,0.096,0.07,0.165c0,0.065-0.023,0.119-0.07,0.162   c-0.047,0.043-0.125,0.064-0.236,0.064h-0.376v1.438h0.375c0.11,0,0.188,0.021,0.235,0.062c0.046,0.042,0.069,0.096,0.069,0.165   c0,0.065-0.023,0.119-0.069,0.162c-0.047,0.043-0.125,0.064-0.235,0.064h-1.672c-0.11,0-0.188-0.021-0.235-0.064   c-0.046-0.043-0.069-0.097-0.069-0.162c0-0.068,0.023-0.123,0.069-0.165c0.047-0.041,0.125-0.062,0.235-0.062h0.844V8.646z    M439.609,8.193V4.248h-0.225l-2.284,3.945H439.609z"
       id="path111" /><path
       d="M453.959,21.828v2.009h-1.055c-0.108,0-0.187-0.021-0.233-0.065c-0.047-0.043-0.071-0.097-0.071-0.162   c0-0.068,0.024-0.124,0.071-0.165c0.047-0.042,0.125-0.062,0.233-0.062h0.602v-5.836h-0.602c-0.108,0-0.187-0.021-0.233-0.064   s-0.071-0.098-0.071-0.166c0-0.064,0.024-0.117,0.071-0.159s0.125-0.063,0.233-0.063h1.055v4.158l1.921-1.619h-0.132   c-0.108,0-0.187-0.021-0.233-0.064c-0.047-0.042-0.071-0.095-0.071-0.159c0-0.068,0.024-0.124,0.071-0.167   c0.047-0.042,0.125-0.064,0.233-0.064h1.313c0.11,0,0.189,0.021,0.235,0.064c0.047,0.043,0.069,0.099,0.069,0.167   c0,0.063-0.022,0.117-0.069,0.159c-0.046,0.043-0.125,0.064-0.235,0.064h-0.498l-1.756,1.48l2.211,2.27h0.504   c0.11,0,0.189,0.021,0.235,0.062c0.047,0.041,0.069,0.096,0.069,0.165c0,0.064-0.022,0.119-0.069,0.162   c-0.046,0.043-0.125,0.065-0.235,0.065h-1.5c-0.108,0-0.187-0.021-0.233-0.065c-0.047-0.043-0.071-0.097-0.071-0.162   c0-0.068,0.024-0.124,0.071-0.165c0.047-0.042,0.125-0.062,0.233-0.062h0.381l-1.928-1.99L453.959,21.828z M460.231,17.548v2.203   c0.265-0.109,0.519-0.191,0.762-0.246s0.475-0.082,0.692-0.082c0.565,0,1.038,0.199,1.42,0.596c0.381,0.397,0.571,0.92,0.571,1.568   c0,0.716-0.215,1.296-0.645,1.74s-0.967,0.666-1.611,0.666c-0.427,0-0.837-0.095-1.23-0.285c-0.279-0.132-0.534-0.297-0.763-0.494   c-0.137-0.118-0.204-0.216-0.204-0.295c0-0.064,0.021-0.119,0.064-0.164c0.043-0.044,0.094-0.067,0.151-0.067   c0.061,0,0.125,0.032,0.193,0.096c0.542,0.503,1.132,0.755,1.77,0.755c0.526,0,0.962-0.18,1.306-0.539s0.516-0.838,0.516-1.435   c0-0.511-0.148-0.92-0.446-1.228c-0.297-0.308-0.675-0.462-1.133-0.462c-0.47,0-0.938,0.123-1.408,0.368   c-0.115,0.057-0.195,0.085-0.242,0.085c-0.064,0-0.117-0.021-0.156-0.064c-0.04-0.043-0.06-0.104-0.06-0.182v-2.988h3.145   c0.107,0,0.185,0.021,0.23,0.064c0.047,0.042,0.07,0.098,0.07,0.165c0,0.064-0.023,0.117-0.069,0.16   c-0.047,0.042-0.124,0.064-0.231,0.064H460.231z"
       id="path113" /><path
       d="M480.359,37.128v2.009h-1.055c-0.108,0-0.187-0.021-0.234-0.064c-0.047-0.043-0.07-0.097-0.07-0.162   c0-0.068,0.023-0.123,0.07-0.165c0.048-0.041,0.126-0.062,0.234-0.062h0.602v-5.836h-0.602c-0.108,0-0.187-0.021-0.234-0.064   c-0.047-0.042-0.07-0.098-0.07-0.166c0-0.063,0.023-0.117,0.07-0.159c0.048-0.042,0.126-0.063,0.234-0.063h1.055v4.158l1.921-1.619   h-0.132c-0.108,0-0.187-0.021-0.234-0.063c-0.047-0.042-0.07-0.095-0.07-0.159c0-0.068,0.023-0.123,0.07-0.166   c0.048-0.043,0.126-0.064,0.234-0.064h1.313c0.11,0,0.188,0.021,0.235,0.064c0.046,0.043,0.069,0.098,0.069,0.166   c0,0.064-0.023,0.117-0.069,0.159c-0.047,0.042-0.125,0.063-0.235,0.063h-0.498l-1.756,1.48l2.21,2.27h0.505   c0.11,0,0.188,0.021,0.235,0.062c0.046,0.042,0.069,0.096,0.069,0.165c0,0.065-0.023,0.119-0.069,0.162   c-0.047,0.043-0.125,0.064-0.235,0.064h-1.5c-0.108,0-0.187-0.021-0.234-0.064c-0.047-0.043-0.07-0.097-0.07-0.162   c0-0.068,0.023-0.123,0.07-0.165c0.048-0.041,0.126-0.062,0.234-0.062h0.381l-1.929-1.99L480.359,37.128z M486.489,35.728   c0,0.121,0.011,0.308,0.032,0.561c0.279-0.415,0.567-0.721,0.863-0.919c0.295-0.197,0.624-0.296,0.986-0.296   c0.48,0,0.906,0.2,1.279,0.599s0.559,0.892,0.559,1.479c0,0.537-0.17,1.028-0.51,1.474c-0.341,0.445-0.811,0.668-1.409,0.668   c-0.391,0-0.755-0.12-1.094-0.359s-0.604-0.608-0.799-1.105c-0.242-0.619-0.362-1.304-0.36-2.055c0-0.565,0.113-1.091,0.339-1.578   c0.172-0.375,0.401-0.705,0.688-0.99c0.286-0.284,0.62-0.517,1.002-0.697c0.381-0.181,0.794-0.271,1.238-0.271   c0.301,0,0.552,0.061,0.752,0.183c0.086,0.054,0.129,0.125,0.129,0.214c0,0.064-0.02,0.118-0.059,0.159s-0.09,0.062-0.15,0.062   c-0.047,0-0.103-0.018-0.167-0.055c-0.146-0.073-0.329-0.109-0.548-0.109c-0.698,0-1.335,0.299-1.91,0.898   S486.489,34.901,486.489,35.728L486.489,35.728z M487.35,35.972c-0.215,0.197-0.457,0.549-0.725,1.056   c0.135,0.65,0.349,1.115,0.641,1.394c0.293,0.279,0.638,0.418,1.035,0.417c0.401,0,0.745-0.156,1.031-0.469   c0.286-0.313,0.429-0.719,0.426-1.22c0.003-0.47-0.141-0.859-0.428-1.165c-0.288-0.306-0.613-0.459-0.976-0.459   C488.007,35.527,487.672,35.676,487.35,35.972L487.35,35.972z"
       id="path115" /><path
       d="M504.959,53.828v2.009h-1.055c-0.108,0-0.187-0.021-0.233-0.065c-0.047-0.043-0.071-0.097-0.071-0.162   c0-0.068,0.024-0.124,0.071-0.165c0.047-0.042,0.125-0.062,0.233-0.062h0.602v-5.836h-0.602c-0.108,0-0.187-0.021-0.233-0.064   s-0.071-0.098-0.071-0.166c0-0.064,0.024-0.117,0.071-0.159s0.125-0.063,0.233-0.063h1.055v4.158l1.921-1.619h-0.132   c-0.108,0-0.187-0.021-0.233-0.064c-0.047-0.042-0.071-0.095-0.071-0.159c0-0.068,0.024-0.124,0.071-0.167   c0.047-0.042,0.125-0.064,0.233-0.064h1.313c0.11,0,0.189,0.021,0.235,0.064c0.047,0.043,0.069,0.099,0.069,0.167   c0,0.063-0.022,0.117-0.069,0.159c-0.046,0.043-0.125,0.064-0.235,0.064h-0.498l-1.756,1.48l2.211,2.27h0.504   c0.11,0,0.189,0.021,0.235,0.062c0.047,0.041,0.069,0.096,0.069,0.165c0,0.064-0.022,0.119-0.069,0.162   c-0.046,0.043-0.125,0.065-0.235,0.065h-1.5c-0.108,0-0.187-0.021-0.233-0.065c-0.047-0.043-0.071-0.097-0.071-0.162   c0-0.068,0.024-0.124,0.071-0.165c0.047-0.042,0.125-0.062,0.233-0.062h0.381l-1.928-1.99L504.959,53.828z M514.107,51.744   c-0.146,0.208-0.385,0.406-0.715,0.595c0.376,0.183,0.659,0.423,0.85,0.722c0.19,0.299,0.286,0.62,0.286,0.963   c0,0.533-0.2,0.995-0.601,1.384c-0.4,0.39-0.887,0.585-1.458,0.585c-0.572,0-1.058-0.195-1.458-0.585   c-0.4-0.39-0.601-0.851-0.601-1.384c0-0.339,0.095-0.659,0.285-0.957c0.19-0.299,0.476-0.541,0.855-0.728   c-0.329-0.189-0.569-0.386-0.72-0.59c-0.208-0.29-0.312-0.61-0.312-0.96c0.001-0.494,0.191-0.925,0.572-1.295   s0.84-0.555,1.377-0.555c0.54,0,1,0.185,1.38,0.555c0.379,0.37,0.568,0.802,0.569,1.295   C514.419,51.14,514.314,51.458,514.107,51.744L514.107,51.744z M514.075,54.036c0-0.399-0.153-0.745-0.459-1.038   c-0.307-0.292-0.688-0.438-1.143-0.434c-0.458-0.003-0.841,0.141-1.148,0.434c-0.308,0.292-0.461,0.637-0.461,1.033   c-0.002,0.407,0.151,0.76,0.459,1.06c0.309,0.3,0.69,0.45,1.146,0.45s0.838-0.15,1.146-0.45   C513.924,54.791,514.076,54.439,514.075,54.036z M513.958,50.802c0-0.386-0.144-0.717-0.431-0.995s-0.643-0.416-1.064-0.416   c-0.419,0-0.771,0.139-1.059,0.418c-0.287,0.278-0.431,0.607-0.431,0.986c0,0.352,0.143,0.659,0.428,0.922   c0.286,0.263,0.641,0.394,1.064,0.392c0.426,0.003,0.781-0.127,1.065-0.391S513.958,51.15,513.958,50.802z"
       id="path117" /><path
       d="M340.826,7.88v1.14c0.588-0.529,1.028-0.87,1.32-1.021s0.563-0.228,0.81-0.228c0.269,0,0.519,0.091,0.75,0.272   s0.347,0.318,0.347,0.412c0,0.068-0.022,0.125-0.066,0.169c-0.045,0.045-0.102,0.067-0.17,0.067c-0.036,0-0.066-0.006-0.092-0.019   c-0.024-0.013-0.071-0.053-0.14-0.121c-0.125-0.125-0.234-0.21-0.328-0.257c-0.093-0.047-0.185-0.07-0.273-0.07   c-0.197,0-0.436,0.079-0.713,0.236c-0.278,0.157-0.759,0.541-1.444,1.152v2.472h2c0.11,0,0.189,0.021,0.235,0.062   c0.047,0.042,0.069,0.096,0.069,0.165c0,0.065-0.022,0.119-0.069,0.162c-0.046,0.043-0.125,0.064-0.235,0.064h-3.539   c-0.108,0-0.187-0.021-0.233-0.062c-0.047-0.042-0.071-0.095-0.071-0.161c0-0.061,0.023-0.112,0.068-0.153s0.124-0.062,0.236-0.062   h1.086V8.333h-0.828c-0.108,0-0.187-0.021-0.233-0.064s-0.071-0.099-0.071-0.167c0-0.063,0.023-0.116,0.068-0.159   s0.124-0.064,0.236-0.064H340.826z"
       id="path119" /><path
       d="M193.392,15.095v6.289h1.766c0.11,0,0.189,0.021,0.235,0.062s0.069,0.096,0.069,0.165c0,0.064-0.023,0.119-0.069,0.162   c-0.046,0.043-0.125,0.065-0.235,0.065h-3.984c-0.109,0-0.187-0.021-0.234-0.065c-0.047-0.043-0.071-0.097-0.071-0.162   c0-0.068,0.023-0.123,0.071-0.165c0.047-0.042,0.125-0.062,0.234-0.062h1.766v-5.836h-1.305c-0.107,0-0.185-0.021-0.232-0.064   c-0.048-0.043-0.072-0.098-0.072-0.166c0-0.064,0.023-0.117,0.069-0.16c0.046-0.043,0.125-0.064,0.235-0.064H193.392z    M199.227,17.181v1.14c0.588-0.529,1.028-0.87,1.32-1.021c0.292-0.152,0.562-0.228,0.809-0.228c0.269,0,0.519,0.09,0.75,0.271   c0.231,0.181,0.347,0.318,0.347,0.412c0,0.068-0.022,0.125-0.067,0.169c-0.044,0.045-0.101,0.067-0.169,0.067   c-0.036,0-0.066-0.006-0.092-0.019c-0.025-0.012-0.072-0.052-0.14-0.12c-0.125-0.125-0.235-0.211-0.328-0.258   c-0.093-0.046-0.185-0.07-0.274-0.07c-0.197,0-0.435,0.079-0.712,0.236s-0.759,0.541-1.444,1.152v2.472h2   c0.11,0,0.189,0.021,0.235,0.062s0.069,0.096,0.069,0.165c0,0.064-0.023,0.119-0.069,0.162c-0.046,0.043-0.125,0.065-0.235,0.065   h-3.539c-0.109,0-0.187-0.021-0.234-0.063c-0.047-0.042-0.071-0.095-0.071-0.16c0-0.061,0.022-0.112,0.068-0.153   c0.045-0.041,0.125-0.062,0.237-0.062h1.086v-3.766h-0.828c-0.109,0-0.187-0.021-0.234-0.064c-0.047-0.043-0.071-0.098-0.071-0.166   c0-0.063,0.022-0.117,0.068-0.159s0.125-0.063,0.237-0.063H199.227z"
       id="path121" /><path
       d="M334.227,17.38v1.14c0.588-0.529,1.028-0.87,1.32-1.021s0.562-0.228,0.81-0.228c0.269,0,0.519,0.091,0.75,0.272   s0.347,0.318,0.347,0.412c0,0.068-0.022,0.125-0.067,0.169s-0.101,0.067-0.169,0.067c-0.036,0-0.066-0.006-0.092-0.019   s-0.071-0.053-0.14-0.121c-0.126-0.125-0.235-0.21-0.328-0.257c-0.094-0.047-0.185-0.07-0.274-0.07   c-0.197,0-0.435,0.079-0.713,0.236c-0.277,0.157-0.759,0.541-1.443,1.152v2.472h2c0.11,0,0.188,0.021,0.235,0.062   c0.046,0.042,0.069,0.096,0.069,0.165c0,0.065-0.023,0.119-0.069,0.162c-0.047,0.043-0.125,0.064-0.235,0.064h-3.539   c-0.109,0-0.187-0.021-0.234-0.062c-0.047-0.042-0.07-0.095-0.07-0.161c0-0.061,0.022-0.112,0.068-0.153   c0.045-0.041,0.124-0.062,0.236-0.062h1.086v-3.766h-0.828c-0.109,0-0.187-0.021-0.234-0.064c-0.047-0.043-0.07-0.099-0.07-0.167   c0-0.063,0.022-0.116,0.068-0.159c0.045-0.042,0.124-0.064,0.236-0.064H334.227z M341.592,15.294v6.289h1.766   c0.11,0,0.189,0.021,0.235,0.062c0.047,0.042,0.069,0.096,0.069,0.165c0,0.065-0.022,0.119-0.069,0.162   c-0.046,0.043-0.125,0.064-0.235,0.064h-3.984c-0.108,0-0.187-0.021-0.233-0.064c-0.047-0.043-0.071-0.097-0.071-0.162   c0-0.068,0.024-0.123,0.071-0.165c0.047-0.041,0.125-0.062,0.233-0.062h1.766v-5.836h-1.305c-0.106,0-0.184-0.021-0.232-0.063   c-0.048-0.043-0.072-0.098-0.072-0.166c0-0.064,0.023-0.117,0.07-0.16c0.046-0.043,0.124-0.064,0.234-0.064H341.592z"
       id="path123" /></g></svg>